<svg width="19" height="23" viewBox="0 0 19 23" fill="none" xmlns="http://www.w3.org/2000/svg">
<path d="M16.2176 16.2634L9.5 23L2.78245 16.2634C1.45386 14.931 0.549085 13.2335 0.182536 11.3855C-0.184014 9.53744 0.00412393 7.6219 0.723159 5.88109C1.4422 4.14028 2.65983 2.65239 4.2221 1.60557C5.78436 0.558741 7.62108 0 9.5 0C11.3789 0 13.2156 0.558741 14.7779 1.60557C16.3402 2.65239 17.5578 4.14028 18.2768 5.88109C18.9959 7.6219 19.184 9.53744 18.8175 11.3855C18.4509 13.2335 17.5461 14.931 16.2176 16.2634ZM9.5 13.761C10.6198 13.761 11.6937 13.3149 12.4856 12.5208C13.2774 11.7268 13.7222 10.6498 13.7222 9.52683C13.7222 8.40385 13.2774 7.32687 12.4856 6.53281C11.6937 5.73875 10.6198 5.29265 9.5 5.29265C8.3802 5.29265 7.30626 5.73875 6.51444 6.53281C5.72262 7.32687 5.27778 8.40385 5.27778 9.52683C5.27778 10.6498 5.72262 11.7268 6.51444 12.5208C7.30626 13.3149 8.3802 13.761 9.5 13.761ZM9.5 11.6439C8.9401 11.6439 8.40313 11.4209 8.00722 11.0238C7.61131 10.6268 7.38889 10.0883 7.38889 9.52683C7.38889 8.96534 7.61131 8.42685 8.00722 8.02982C8.40313 7.63279 8.9401 7.40974 9.5 7.40974C10.0599 7.40974 10.5969 7.63279 10.9928 8.02982C11.3887 8.42685 11.6111 8.96534 11.6111 9.52683C11.6111 10.0883 11.3887 10.6268 10.9928 11.0238C10.5969 11.4209 10.0599 11.6439 9.5 11.6439Z" fill="#FFFDFD"/>
</svg>
